<?xml version="1.0" encoding="utf-8"?>
<!-- Generator: Adobe Illustrator 18.1.1, SVG Export Plug-In . SVG Version: 6.00 Build 0)  -->
<svg version="1.1" id="Layer_1" xmlns="http://www.w3.org/2000/svg" xmlns:xlink="http://www.w3.org/1999/xlink" x="0px" y="0px"
	 viewBox="14.3 298.2 568.4 527.5" enable-background="new 14.3 298.2 568.4 527.5" xml:space="preserve">
<g opacity="0.85">
	<g>
		<path fill-rule="evenodd" clip-rule="evenodd" fill="#004664" d="M136,438.8c0.2-5.2-0.5-8.9-0.5-8.9l11.7-9.9l-2.9-8.6l-15.1-0.4
			c0,0-1.5-3-4.9-7.5c-2.7-3.5-6-6.2-6-6.2l2.6-15.3l-7.8-4.7l-12.1,9.6c0,0-3.4-1.4-8.4-2.3c-4.9-1-8.4-0.9-8.4-0.9l-8.1-13.9
			l-9,1.4L64,387c0,0-3.9,1.5-7.4,3.4c-3.5,1.9-6.9,4.5-6.9,4.5l-15.6-5.6l-5.9,6.8l7.9,14.7c0,0-2.1,3.7-3.4,7.2
			c-1.5,3.9-2.2,7.3-2.2,7.3l-16,6l-0.1,8.9l15.6,6.3c0,0,0.7,3.5,2,7.6c1.4,4,2.8,7.1,2.8,7.1l-8.4,14.7l5.6,7.1l15.7-5.2
			c0,0,2.7,2.4,6.2,4.5s7.2,3.9,7.2,3.9l3.1,16.5l8.7,1.6l8.5-13.7c0,0,4,0.2,8.1-0.4c4.6-0.7,8.1-1.7,8.1-1.7l12.5,10.3l7.8-4.4
			l-2.3-15.4c0,0,4.1-3.1,6.8-6.4c2.7-3.2,4.9-6.4,4.9-6.4l15.6-0.1l3.3-8.3L135,447.6C135,447.6,135.7,444,136,438.8z M110.5,461.4
			l-35,12l-27.9-24.3l7-36.2l35-12l27.8,24.1L110.5,461.4z"/>
	</g>
</g>
<g opacity="0.9">
	<g>
		<path fill-rule="evenodd" clip-rule="evenodd" fill="#C72127" d="M526.6,603l56.1-21.9v-35.5L527,524.9c0,0-1.6-13-8.8-34.2
			c-5.5-16.3-14.5-30.7-14.5-30.7l29.4-53.5l-22.8-27.2l-57,20.2c0,0-11-9.4-28.1-19.3s-29.8-14-29.8-14l-12.3-61.8l-35.1-6.1
			l-32,54.4c0,0-16.3,0.5-31.6,3.1c-15.4,2.6-31.1,7.9-31.1,7.9l-50.9-40.8l-30.7,17.5l10.5,64.5c0,0-12.5,11-21.9,22.4
			c-10.4,12.5-17.5,24.1-17.5,24.1L75.8,453L64,485.9l50,43.4c0,0-2.1,13.9-2.2,30.7s1.3,29.8,1.3,29.8l-50,43.8L74.9,667l64.9,0.9
			c0,0,7.2,12.2,17.1,24.6c9.9,12.3,21.9,23.7,21.9,23.7l-9.6,65.3l30.3,17.1l49.1-39.9c0,0,14.5,5.9,30.7,8.8
			c17.9,3.2,32.4,3.9,32.4,3.9l33.3,54.4l34.6-6.1l11-60.1c0,0,19-6.5,33.3-14.9c14.3-8.5,26.3-17.5,26.3-17.5l57.9,19.3l22.8-26.7
			L502,667.9c0,0,7.3-12.2,14.9-31.1C524.3,617.8,526.6,603,526.6,603z M393.7,688.1H248.6l-72.4-125.8l72.4-125.4h145.1l72.4,125
			L393.7,688.1z"/>
	</g>
</g>
<g opacity="0.9">
	<g>
		<path fill-rule="evenodd" clip-rule="evenodd" fill="#004664" d="M545.5,578.2c0.4-9.4-0.9-16.2-0.9-16.2l21.3-18l-5.3-15.5
			l-27.5-0.6c0,0-2.7-5.5-9-13.7c-4.9-6.3-11-11.3-11-11.3l4.8-27.8l-14.1-8.5L482,483.9c0,0-6.2-2.5-15.2-4.2
			c-9-1.7-15.2-1.7-15.2-1.7l-14.7-25.2l-16.3,2.6l-5.8,28.6c0,0-7.1,2.7-13.4,6.1c-6.3,3.4-12.4,8.1-12.4,8.1l-28.4-10.2
			l-10.8,12.3l14.3,26.6c0,0-3.8,6.7-6.2,13.1c-2.7,7.1-4,13.2-4,13.2l-29.1,10.9l-0.2,16.2l28.4,11.5c0,0,1.2,6.4,3.7,13.8
			c2.5,7.4,5.1,12.9,5.1,12.9l-15.3,26.7l10.2,12.8l28.5-9.4c0,0,5,4.3,11.2,8.2c6.2,3.9,13.2,7.1,13.2,7.1l5.6,30l15.8,2.9
			l15.5-24.9c0,0,7.2,0.4,14.8-0.8c8.3-1.3,14.8-3.2,14.8-3.2l22.8,18.8l14.2-7.9l-4.2-27.9c0,0,7.4-5.7,12.3-11.5
			s8.9-11.6,8.9-11.6l28.2-0.3l6-15.1L543.6,594C543.6,594,545,587.6,545.5,578.2z M499.3,619.2L435.7,641l-50.6-44.2l12.8-65.8
			l63.5-21.8l50.5,43.8L499.3,619.2z"/>
	</g>
</g>
</svg>
